<?xml version="1.0" encoding="UTF-8" standalone="no"?>
<!-- Created with Inkscape (http://www.inkscape.org/) -->

<svg
   version="1.1"
   id="svg2"
   xml:space="preserve"
   width="1866.6667"
   height="1306.6667"
   viewBox="0 0 1866.6667 1306.6667"
   sodipodi:docname="Soccer Field.ai"
   xmlns:inkscape="http://www.inkscape.org/namespaces/inkscape"
   xmlns:sodipodi="http://sodipodi.sourceforge.net/DTD/sodipodi-0.dtd"
   xmlns="http://www.w3.org/2000/svg"
   xmlns:svg="http://www.w3.org/2000/svg"><defs
     id="defs6"><pattern
       patternTransform="translate(-700,81.062)"
       patternUnits="userSpaceOnUse"
       x="0"
       y="0"
       width="9.27414"
       height="8.03125"
       id="pattern50"><g
         transform="translate(2.463,0.25)"
         id="g48"><path
           d="M 0,0 -2.174,3.766 0,7.531 4.348,7.531 6.522,3.766 4.348,0 0,0 Z"
           style="fill:none;stroke:#ffffff;stroke-opacity:1;stroke-width:0.5;stroke-linecap:butt;stroke-linejoin:miter;stroke-miterlimit:10;stroke-dasharray:none"
           id="path46" /></g></pattern><clipPath
       clipPathUnits="userSpaceOnUse"
       id="clipPath68"><path
         d="M 0,980 H 1400 V 0 H 0 Z"
         id="path66" /></clipPath><pattern
       patternTransform="matrix(-1,0,0,1,-15261.989,396.5845)"
       patternUnits="userSpaceOnUse"
       x="0"
       y="0"
       width="9.27414"
       height="8.03125"
       id="pattern80"><g
         transform="translate(2.463,0.25)"
         id="g78"><path
           d="M 0,0 -2.174,3.766 0,7.531 4.348,7.531 6.522,3.766 4.348,0 0,0 Z"
           style="fill:none;stroke:#ffffff;stroke-opacity:1;stroke-width:0.5;stroke-linecap:butt;stroke-linejoin:miter;stroke-miterlimit:10;stroke-dasharray:none"
           id="path76" /></g></pattern><clipPath
       clipPathUnits="userSpaceOnUse"
       id="clipPath126"><path
         d="M 0,980 H 1400 V 0 H 0 Z"
         id="path124" /></clipPath><clipPath
       clipPathUnits="userSpaceOnUse"
       id="clipPath130"><path
         d="M 1400,0 H 0 v 980 h 1400 z"
         id="path128" /></clipPath><radialGradient
       fx="0"
       fy="0"
       cx="0"
       cy="0"
       r="1"
       gradientUnits="userSpaceOnUse"
       gradientTransform="matrix(866.92578,0,0,-678.2486,700,490)"
       spreadMethod="pad"
       id="radialGradient144"><stop
         style="stop-opacity:0;stop-color:#ffffff"
         offset="0"
         id="stop136" /><stop
         style="stop-opacity:0;stop-color:#ffffff"
         offset="0.004329"
         id="stop138" /><stop
         style="stop-opacity:0;stop-color:#ffffff"
         offset="0.37638825"
         id="stop140" /><stop
         style="stop-opacity:0.50000763;stop-color:#ffffff"
         offset="1"
         id="stop142" /></radialGradient><mask
       maskUnits="userSpaceOnUse"
       x="0"
       y="0"
       width="1"
       height="1"
       id="mask146"><g
         id="g156"><g
           id="g154"><g
             id="g152"><g
               id="g150"><path
                 d="M -32768,32767 H 32767 V -32768 H -32768 Z"
                 style="fill:url(#radialGradient144);stroke:none"
                 id="path148" /></g></g></g></g></mask><radialGradient
       fx="0"
       fy="0"
       cx="0"
       cy="0"
       r="1"
       gradientUnits="userSpaceOnUse"
       gradientTransform="matrix(866.92578,0,0,-678.2486,700,490)"
       spreadMethod="pad"
       id="radialGradient166"><stop
         style="stop-opacity:1;stop-color:#ffffff"
         offset="0"
         id="stop158" /><stop
         style="stop-opacity:1;stop-color:#ffffff"
         offset="0.004329"
         id="stop160" /><stop
         style="stop-opacity:1;stop-color:#ffffff"
         offset="0.37638825"
         id="stop162" /><stop
         style="stop-opacity:1;stop-color:#231f20"
         offset="1"
         id="stop164" /></radialGradient></defs><sodipodi:namedview
     id="namedview4"
     pagecolor="#ffffff"
     bordercolor="#666666"
     borderopacity="1.0"
     inkscape:pageshadow="2"
     inkscape:pageopacity="0.0"
     inkscape:pagecheckerboard="0" /><g
     id="g8"
     inkscape:groupmode="layer"
     inkscape:label="Soccer Field"
     transform="matrix(1.3333333,0,0,-1.3333333,0,1306.6667)"><path
       d="M 0,0 H 100 V 980 H 0 Z"
       style="fill:#4f980b;fill-opacity:1;fill-rule:nonzero;stroke:none"
       id="path10" /><path
       d="M 100,0 H 200 V 980 H 100 Z"
       style="fill:#3c8009;fill-opacity:1;fill-rule:nonzero;stroke:none"
       id="path12" /><path
       d="M 200,0 H 300 V 980 H 200 Z"
       style="fill:#4f980b;fill-opacity:1;fill-rule:nonzero;stroke:none"
       id="path14" /><path
       d="m 300,0 h 99.999 V 980 H 300 Z"
       style="fill:#3c8009;fill-opacity:1;fill-rule:nonzero;stroke:none"
       id="path16" /><path
       d="m 399.999,0 h 100 v 980 h -100 z"
       style="fill:#4f980b;fill-opacity:1;fill-rule:nonzero;stroke:none"
       id="path18" /><path
       d="m 499.999,0 h 100 v 980 h -100 z"
       style="fill:#3c8009;fill-opacity:1;fill-rule:nonzero;stroke:none"
       id="path20" /><path
       d="m 599.998,0 h 100 v 980 h -100 z"
       style="fill:#4f980b;fill-opacity:1;fill-rule:nonzero;stroke:none"
       id="path22" /><path
       d="m 699.998,0 h 100 v 980 h -100 z"
       style="fill:#3c8009;fill-opacity:1;fill-rule:nonzero;stroke:none"
       id="path24" /><path
       d="m 799.998,0 h 100 v 980 h -100 z"
       style="fill:#4f980b;fill-opacity:1;fill-rule:nonzero;stroke:none"
       id="path26" /><path
       d="M 899.998,0 H 999.999 V 980 H 899.998 Z"
       style="fill:#3c8009;fill-opacity:1;fill-rule:nonzero;stroke:none"
       id="path28" /><path
       d="m 999.999,0 h 100 v 980 h -100 z"
       style="fill:#4f980b;fill-opacity:1;fill-rule:nonzero;stroke:none"
       id="path30" /><path
       d="m 1099.999,0 h 100 v 980 h -100 z"
       style="fill:#3c8009;fill-opacity:1;fill-rule:nonzero;stroke:none"
       id="path32" /><path
       d="M 1199.999,0 H 1300 v 980 h -100.001 z"
       style="fill:#4f980b;fill-opacity:1;fill-rule:nonzero;stroke:none"
       id="path34" /><path
       d="m 1300,0 h 100.001 V 980 H 1300 Z"
       style="fill:#3c8009;fill-opacity:1;fill-rule:nonzero;stroke:none"
       id="path36" /><path
       d="M 1303,92 H 97 v 802 h 1206 z"
       style="fill:none;stroke:#ffffff;stroke-width:7;stroke-linecap:butt;stroke-linejoin:miter;stroke-miterlimit:10;stroke-dasharray:none;stroke-opacity:1"
       id="path38" /><g
       id="g40"
       transform="translate(700,894)"><path
         d="M 0,0 V -802"
         style="fill:none;stroke:#ffffff;stroke-width:7;stroke-linecap:butt;stroke-linejoin:miter;stroke-miterlimit:10;stroke-dasharray:none;stroke-opacity:1"
         id="path42" /></g><path
       d="M 97,432.759 H 53.939 V 553.241 H 97 Z"
       style="fill:none;stroke:#ffffff;stroke-width:4.209;stroke-linecap:butt;stroke-linejoin:miter;stroke-miterlimit:10;stroke-dasharray:none;stroke-opacity:1"
       id="path44" /><path
       d="M 97,432.759 H 53.939 V 553.241 H 97 Z"
       style="fill:url(#pattern50);fill-opacity:1;fill-rule:nonzero;stroke:none"
       id="path52" /><g
       id="g54"
       transform="translate(97,720.3965)"><path
         d="M 0,0 H 186.883 V -454.793 H 0"
         style="fill:none;stroke:#ffffff;stroke-width:7;stroke-linecap:butt;stroke-linejoin:miter;stroke-miterlimit:10;stroke-dasharray:none;stroke-opacity:1"
         id="path56" /></g><g
       id="g58"
       transform="translate(97,596.1152)"><path
         d="M 0,0 H 60.974 V -206.23 H 0"
         style="fill:none;stroke:#ffffff;stroke-width:7;stroke-linecap:butt;stroke-linejoin:miter;stroke-miterlimit:10;stroke-dasharray:none;stroke-opacity:1"
         id="path60" /></g><g
       id="g62"><g
         id="g64"
         clip-path="url(#clipPath68)"><g
           id="g70"
           transform="translate(283.8887,578.4775)"><path
             d="m 0,0 c 25.727,-19.633 42.327,-50.617 42.327,-85.478 -10e-4,-34.861 -16.601,-65.845 -42.329,-85.478"
             style="fill:none;stroke:#ffffff;stroke-width:7;stroke-linecap:butt;stroke-linejoin:miter;stroke-miterlimit:10;stroke-dasharray:none;stroke-opacity:1"
             id="path72" /></g><path
           d="m 1303,432.759 h 43.061 V 553.241 H 1303 Z"
           style="fill:none;stroke:#ffffff;stroke-width:4.209;stroke-linecap:butt;stroke-linejoin:miter;stroke-miterlimit:10;stroke-dasharray:none;stroke-opacity:1"
           id="path74" /><path
           d="m 1303,432.759 h 43.061 V 553.241 H 1303 Z"
           style="fill:url(#pattern80);fill-opacity:1;fill-rule:nonzero;stroke:none"
           id="path82" /><g
           id="g84"
           transform="translate(1303,720.3965)"><path
             d="M 0,0 H -186.883 V -454.793 H 0"
             style="fill:none;stroke:#ffffff;stroke-width:7;stroke-linecap:butt;stroke-linejoin:miter;stroke-miterlimit:10;stroke-dasharray:none;stroke-opacity:1"
             id="path86" /></g><g
           id="g88"
           transform="translate(1303,596.1152)"><path
             d="M 0,0 H -60.975 V -206.23 H 0"
             style="fill:none;stroke:#ffffff;stroke-width:7;stroke-linecap:butt;stroke-linejoin:miter;stroke-miterlimit:10;stroke-dasharray:none;stroke-opacity:1"
             id="path90" /></g><g
           id="g92"
           transform="translate(1116.1113,578.4775)"><path
             d="m 0,0 c -25.727,-19.633 -42.326,-50.617 -42.326,-85.478 0,-34.861 16.6,-65.845 42.328,-85.478"
             style="fill:none;stroke:#ffffff;stroke-width:7;stroke-linecap:butt;stroke-linejoin:miter;stroke-miterlimit:10;stroke-dasharray:none;stroke-opacity:1"
             id="path94" /></g><g
           id="g96"
           transform="translate(808.1465,492.9995)"><path
             d="m 0,0 c 0,-59.728 -48.419,-108.146 -108.146,-108.146 -59.728,0 -108.147,48.418 -108.147,108.146 0,59.728 48.419,108.146 108.147,108.146 C -48.419,108.146 0,59.728 0,0 Z"
             style="fill:none;stroke:#ffffff;stroke-width:7;stroke-linecap:butt;stroke-linejoin:miter;stroke-miterlimit:10;stroke-dasharray:none;stroke-opacity:1"
             id="path98" /></g><g
           id="g100"
           transform="translate(707.3193,493)"><path
             d="m 0,0 c 0,-4.043 -3.277,-7.319 -7.319,-7.319 -4.042,0 -7.32,3.276 -7.32,7.319 0,4.042 3.278,7.319 7.32,7.319 C -3.277,7.319 0,4.042 0,0"
             style="fill:#ffffff;fill-opacity:1;fill-rule:nonzero;stroke:none"
             id="path102" /></g><g
           id="g104"
           transform="translate(127.3794,894.0005)"><path
             d="M 0,0 C -1.307,-15.836 -14.329,-28.349 -30.379,-28.856"
             style="fill:none;stroke:#ffffff;stroke-width:4;stroke-linecap:butt;stroke-linejoin:miter;stroke-miterlimit:10;stroke-dasharray:none;stroke-opacity:1"
             id="path106" /></g><g
           id="g108"
           transform="translate(127.3794,92)"><path
             d="M 0,0 C -1.307,15.836 -14.329,28.349 -30.379,28.855"
             style="fill:none;stroke:#ffffff;stroke-width:4;stroke-linecap:butt;stroke-linejoin:miter;stroke-miterlimit:10;stroke-dasharray:none;stroke-opacity:1"
             id="path110" /></g><g
           id="g112"
           transform="translate(1272.6211,894.0005)"><path
             d="M 0,0 C 1.307,-15.836 14.328,-28.349 30.379,-28.856"
             style="fill:none;stroke:#ffffff;stroke-width:4;stroke-linecap:butt;stroke-linejoin:miter;stroke-miterlimit:10;stroke-dasharray:none;stroke-opacity:1"
             id="path114" /></g><g
           id="g116"
           transform="translate(1272.6211,92)"><path
             d="M 0,0 C 1.307,15.836 14.328,28.349 30.379,28.855"
             style="fill:none;stroke:#ffffff;stroke-width:4;stroke-linecap:butt;stroke-linejoin:miter;stroke-miterlimit:10;stroke-dasharray:none;stroke-opacity:1"
             id="path118" /></g><g
           id="g120"><g
             id="g122" /><g
             id="g184"><g
               clip-path="url(#clipPath126)"
               id="g182"><g
                 id="g180"><g
                   clip-path="url(#clipPath130)"
                   id="g178"><g
                     id="g176"><g
                       id="g168" /><g
                       mask="url(#mask146)"
                       id="g174"><g
                         id="g172"><path
                           d="M 1400,0 H 0 v 980 h 1400 z"
                           style="fill:url(#radialGradient166);stroke:none"
                           id="path170" /></g></g></g></g></g></g></g></g></g></g></g></svg>
